<svg id="Layer_1" data-name="Layer 1" xmlns="http://www.w3.org/2000/svg" width="910.75" height="1007.31" viewBox="0 0 910.75 1007.31">
  <defs>
    <style>
      .cls-1 {
        fill: #cc202e;
      }

      .cls-2, .cls-3, .cls-5, .cls-6, .cls-7, .cls-8 {
        fill: #fff;
      }

      .cls-2 {
        opacity: 0.15;
      }

      .cls-10, .cls-11, .cls-13, .cls-14, .cls-15, .cls-2, .cls-3, .cls-5, .cls-6, .cls-7, .cls-8, .cls-9 {
        isolation: isolate;
      }

      .cls-3 {
        opacity: 0.3;
      }

      .cls-10, .cls-11, .cls-4 {
        fill: #9e2031;
      }

      .cls-5 {
        opacity: 0.11;
      }

      .cls-6 {
        opacity: 0.2;
      }

      .cls-13, .cls-7, .cls-9 {
        opacity: 0.6;
      }

      .cls-8 {
        opacity: 0.25;
      }

      .cls-9 {
        fill: #da1f29;
      }

      .cls-10 {
        opacity: 0.32;
      }

      .cls-11 {
        opacity: 0.17;
      }

      .cls-12 {
        fill: #7a8f3a;
      }

      .cls-13, .cls-14, .cls-15 {
        fill: #485525;
      }

      .cls-14 {
        opacity: 0.35;
      }

      .cls-15 {
        opacity: 0.68;
      }

      .cls-16 {
        fill: #83a561;
      }

      .cls-16, .cls-20 {
        stroke: #485525;
        stroke-miterlimit: 10;
        stroke-width: 0.59px;
      }

      .cls-17 {
        opacity: 0.59;
      }

      .cls-18 {
        fill: #3f5f2c;
      }

      .cls-19 {
        opacity: 0.89;
      }

      .cls-20 {
        fill: #95b978;
      }
    </style>
  </defs>
  <title>cherry</title>
  <g>
    <g id="Fill">
      <path class="cls-1" d="M549.34,577.23s72.28-105.68,255.92-86C883.37,499.56,931,544.34,960,593.35c76,128.57,33.38,294.41-95.19,370.41a270.51,270.51,0,0,1-62.27,26.92C610.61,1049,546.72,880.85,546.72,880.85Z" transform="translate(-86.88 -40.88)"/>
    </g>
    <g id="_1_Highlights" data-name=" 1 Highlights">
      <path class="cls-2" d="M797.39,603.05s54,17.28,37.85,51.05S718,810.76,676.24,814.55s-31.94-75.34-31.94-75.34S725.62,738.41,797.39,603.05Z" transform="translate(-86.88 -40.88)"/>
      <path class="cls-3" d="M649,695.45c17.5-12.1,87.52-61.92,111.8-104.15A11.53,11.53,0,0,1,776.49,587a11.93,11.93,0,0,1,2,1.45l17.28,12.62c4.67,4.3,1,0-2.55,7.8C749.47,708.07,657.35,743.52,644.08,739c-16.41-5.54-2.26-20.56,0-36A11.15,11.15,0,0,1,649,695.45Z" transform="translate(-86.88 -40.88)"/>
      <path class="cls-4" d="M292,573.44S69.59,620.84,134.87,840.37,387,1048.08,387,1048.08s316-43,274.38-302.6S363.22,555.86,363.22,555.86,319.39,577.89,292,573.44Z" transform="translate(-86.88 -40.88)"/>
      <path class="cls-1" d="M279.49,567S57,614.42,122.25,834s252.2,207.72,252.2,207.72,315.87-43,274.37-302.6S315.16,552.72,315.16,552.72,306,568,279.49,567Z" transform="translate(-86.88 -40.88)"/>
      <g id="Highligh">
        <path class="cls-5" d="M504.27,599.33s66.66,124-17.94,169.13S248.06,827.39,180,718.5c0,0-9-58.93,62.72-98.68A264.06,264.06,0,0,1,385,587.8S471,554.47,504.27,599.33Z" transform="translate(-86.88 -40.88)"/>
        <path class="cls-6" d="M185.34,693.48s32,91.83,64.25,30.85S333.46,704,333.46,704s24.58,36.46-6.78,51.71,94.81,66.07,116-25.46c0,0,19.55-29.68,57.62-10.14s9.34-47.48-21.88-48.35-49.23-28.44-65.05-15.1A89.38,89.38,0,0,1,378,676.56a64.71,64.71,0,0,1-29.17,2.77c-20.79-3.71-67.32-9-84.6-4.44a70.8,70.8,0,0,0-14.59,5.25,39.24,39.24,0,0,0-8.09,5.61C230,695.45,192.63,717.33,185.34,693.48Z" transform="translate(-86.88 -40.88)"/>
        <path class="cls-7" d="M185.34,693.48s1.89-84.16,160.45-101.15,68.12,98.31,1.89,86.93-93.57-5.61-105.9,5.69S192,717.33,185.34,693.48Z" transform="translate(-86.88 -40.88)"/>
        <path class="cls-2" d="M678.8,573l46.75-51a2.26,2.26,0,0,0-2.63-3.65L662.53,546a6.5,6.5,0,0,0-3.35,8,20.65,20.65,0,0,1-2.63,20.42c-6.12,5,11.6,4.3,17.87.95A15.36,15.36,0,0,0,678.8,573Z" transform="translate(-86.88 -40.88)"/>
        <path class="cls-8" d="M593.76,603.92a1.45,1.45,0,0,1-.29-2,1.43,1.43,0,0,1,1.16-.58c11.74,0,40.85,3.94,35.3,29.17C623.44,660.81,625.85,627,593.76,603.92Z" transform="translate(-86.88 -40.88)"/>
        <path class="cls-9" d="M534.54,691.44c-7.88,82.93-94.82,295.38-186.13,345.85,0,0,256.43,23.26,300-242,0,0,3.29-190.5-112-225.07v6.85C526.88,612.89,538,654.61,534.54,691.44Z" transform="translate(-86.88 -40.88)"/>
      </g>
    </g>
    <g id="Shadow">
      <path class="cls-10" d="M207.21,853.64C248,904.7,359,1015.7,483.92,854.23a70.94,70.94,0,0,0,4.81-6.64l1.24-2a62.38,62.38,0,0,0,3.8-7.3,476,476,0,0,0,35.59-114.5c.51-3.35,11.38,10.79,11.08,14.59-3.72,53.24-48.28,151-138,242.64-102.11,103.93-171.25-63.52-200.2-124a3,3,0,1,1,5-3.36Z" transform="translate(-86.88 -40.88)"/>
      <path class="cls-11" d="M723.94,548.42s174.17-7.73,201.3,117.42-34.87,211.51-60.68,226.09-131.28,56.82-220.62-6.41L600.18,950S853.11,1119.05,987.3,810.61c0,0,54.19-190.93-112.24-290.34s-240-6.42-240-6.42,124-19.33,125.15,0S723.94,548.42,723.94,548.42Z" transform="translate(-86.88 -40.88)"/>
      <path class="cls-4" d="M655.24,549.59c0,1.46,2.84,3.06,3.79,4s-.8-5,1.83-6.57c5.47-3.35,14.07-7.29,25.08-12.1,5.91-2.77,11.82-5.91,17.36-8,14.59-5.69,23.56-11.16,23.05-6.57,0,0-.37-8.46-2.63-9.63-17.86-8.89-69.21,27.43-68.48,38.8" transform="translate(-86.88 -40.88)"/>
    </g>
    <g id="Layer_6" data-name="Layer 6">
      <path class="cls-12" d="M88.26,104.7l-1.38,32.82,14.58,8.09s72.94,128.15,85.41,162.72,93.93,223.75,91.16,259c0,0,40.7,0,36.47-16.26,0,0-93.06-249.21-109.4-277.66L164.18,206.8,105.84,98.35Z" transform="translate(-86.88 -40.88)"/>
      <path class="cls-12" d="M362.93,308.11S578,540.76,613.81,588.39A11.82,11.82,0,0,0,628,592.11c14.59-6.2,39.09-20.86,23-44.42L401.07,303l-45.29-25.89Z" transform="translate(-86.88 -40.88)"/>
    </g>
    <g id="Layer_7" data-name="Layer 7">
      <path class="cls-13" d="M108.54,153.78l54.33,102.91L175.12,226l-1.45-7.3S117.65,155.75,116,148Z" transform="translate(-86.88 -40.88)"/>
      <path class="cls-14" d="M169.8,239.62S260.09,414.15,306.55,562.5l8.31-4.23a4,4,0,0,0,1.39-4.6c-7.95-21.15-59.37-161.18-99.41-251.76-4.59-10.29-8.39-19.26-12.54-28-11.67-24.72-25.46-40-29.18-48.42Z" transform="translate(-86.88 -40.88)"/>
      <path class="cls-15" d="M361.83,306.43l26.77,30.85s33.91,8.53,79.86,54.48L609,533.54s32.31,22.39,8.68,47.26c0,0-5.18,11.6,3.28,14.59,4.16,1.24,19.11-5.11,27.72-14.59s11.15-23,5.54-30l-18.89-18.45L493.69,393.07l-91.82-87.51Z" transform="translate(-86.88 -40.88)"/>
    </g>
    <g id="Layer_8" data-name="Layer 8">
      <path class="cls-16" d="M91.69,107.69l-2.41,29.54,22.32,8.31S214.51,314.45,400.19,307.09,679.31,275.65,757,225.26c0,0-119.17-154.4-289.61-176.28S163.46,63.64,91.69,107.69Z" transform="translate(-86.88 -40.88)"/>
    </g>
    <g id="Layer_10" data-name="Layer 10" class="cls-17">
      <path class="cls-18" d="M98.18,108.42s138.57,50,637.07,111.59a41.63,41.63,0,0,1,4.74,1.31l11.59.58S656.12,72.9,442,49.27,98.18,108.42,98.18,108.42Z" transform="translate(-86.88 -40.88)"/>
    </g>
    <g id="Layer_9" data-name="Layer 9" class="cls-19">
      <path class="cls-20" d="M91.91,107.76l69.87,14.59,75.63-68.7,15.75-3,28.37-4.31L177.6,126.58,265.12,142s35.16-74.68,115-100.87l37.63,2.48S301,76.91,282.41,147.22L348.05,158s112.39-98.6,147-104.95l10,2,14.59,4.89S409,113.74,377.51,164.07L459.2,176s86.93-83.72,127.85-89l23,11.81s-50.54-2.11-129.3,81.83l72.93,8.68s52-76.21,83.51-75.12l17.28,12.4s-48.14,10.5-79.64,66.15l46.82,4.45S687.33,168,707,169.9l17.14,18s-24.87-14-76.29,15.39L753.55,220l3.65,5.17-3,1.61L609,204.32,688.57,262l-16.77,6.28L588.21,204l-95.76-10.21L631,280.9,608.78,285,466.27,188.57l-79.06-7.66S514,296.37,527.61,298.41l-26.84,2.7-144.63-123s-45.14-11.6-73.51-10.5c0,0,21.88,59.8,134.34,139.52l-38.8-1S267,209.5,255.35,159.18l-80.81-8.39s34.64,84,102.11,133.25c0,0-79.72-12.62-112.25-129.09L89.14,137.23Z" transform="translate(-86.88 -40.88)"/>
    </g>
  </g>
</svg>
