<svg id="Layer_1" data-name="Layer 1" xmlns="http://www.w3.org/2000/svg" xmlns:xlink="http://www.w3.org/1999/xlink" width="936.99" height="936.99" viewBox="0 0 936.99 936.99">
  <defs>
    <style>
      .cls-1, .cls-4, .cls-5, .cls-6, .cls-7 {
        isolation: isolate;
      }

      .cls-2 {
        fill: #42a8de;
      }

      .cls-3 {
        fill: #4ac7f4;
      }

      .cls-4 {
        fill: #2491d0;
        opacity: 0.25;
      }

      .cls-5 {
        fill: #4ba8de;
        opacity: 0.89;
      }

      .cls-6, .cls-7 {
        fill: #fff;
      }

      .cls-6 {
        opacity: 0.1;
      }

      .cls-7 {
        opacity: 0.77;
      }
    </style>
  </defs>
  <title>drops</title>
  <g id="Layer_1-2" data-name="Layer 1">
    <image class="cls-1" width="144" height="144" transform="scale(6.51)" xlink:href="drops1.png"/>
    <path class="cls-2" d="M116.94,398.32s-2.15-94.94,56.35-46.4c46.85,39,117.12,105.41,143.15,130.14a205.28,205.28,0,0,0,19,16.59c33.18,25.64,148.16,125.26,129.22,260.6-21.73,155.06-242.51,185.51-316.3,71.58A114.52,114.52,0,0,0,141,820.48c-12.11-14.57-50.24-71.57-42.82-199.11Z" transform="translate(-36.12 -68.35)"/>
    <path class="cls-3" d="M121.82,411.07s-2.15-93.18,55.31-45.55C222,402.81,288.65,465.73,315.92,491.3A255.62,255.62,0,0,0,337,509.52C370.05,535.16,482,632.69,463.49,765c-21.08,150.31-233.07,181.28-308,74-3.71-5.27-7.35-10.67-11.32-15.75-13-16.85-47.63-73.07-40.6-193.64Z" transform="translate(-36.12 -68.35)"/>
    <path class="cls-4" d="M104.25,699a144.42,144.42,0,0,0,5,34c10.86,40.28,74.24,122.2,151.22,129.62,98.19,9.44,185.25-37.93,199.69-127.66,13.47-83.62-48.28-153.11-56.8-162.28-.65-.66-13.41-15.36-14.25-15.75l-23.36-23.17c-3.64-1.69-1.17,3.91,0,7.42s0,7.94,2,10.87c29.67,37.74,48.21,90.51,45.54,128.9-2.66,39.69-5.79,55.89-18.93,80.68-8.13,15.36-19.13,30.65-65.46,48.74-.91.39-47.37,7.81-48.35,7.68-16.59-1.76-76.71,0-175-119.08Z" transform="translate(-36.12 -68.35)"/>
    <path class="cls-5" d="M181.35,453.62c52.51-20.82,119.41,35.92,153.24,121.49s21.93,167.55-30.65,188.31-124-20.17-157.85-105.74S128.78,474.38,181.35,453.62Z" transform="translate(-36.12 -68.35)"/>
    <path class="cls-6" d="M145.57,684a189.8,189.8,0,0,0,49.25,61.82c.46.45,20,12.56,30.91,11.71a239.19,239.19,0,0,0,71.19-9.76,98.65,98.65,0,0,0,66.5-97.6c-1.11-28.11-3.45-64.29-8-68.59-7-6.76-177-174.9-190.91-187.2a4.09,4.09,0,0,0-2-1l-12.29-2.6a4.43,4.43,0,0,0-5.24,3.42,4.3,4.3,0,0,0-.1.87V682A3.77,3.77,0,0,0,145.57,684Z" transform="translate(-36.12 -68.35)"/>
    <path class="cls-7" d="M135.22,380.1s3.51-29.61,19.52-15c13,12,111.59,98.58,146.8,129.42a176.24,176.24,0,0,1,25.24,27.33c16.34,21.92,41.45,59.4,31.69,70.53-14.05,16-136.06-132.09-156.16-133.19-18.42-1-46.53,4-46.53,22.57,0,21-7.48,183.56-2.08,192s-31.69,20.43-35.79-9.05S135.22,380.1,135.22,380.1Z" transform="translate(-36.12 -68.35)"/>
    <path class="cls-2" d="M363.94,296.09s-84.59-60.9-3.32-79.9c65.07-15.23,169.76-32.53,208.87-39a253.67,253.67,0,0,0,26.87-5.86C640.8,159.45,803.93,124.77,909.93,231c121.29,121.61,1.69,334.9-146.86,324a125.56,125.56,0,0,0-14,0c-20.76.91-95.78-3.38-202.56-94.41Z" transform="translate(-36.12 -68.35)"/>
    <path class="cls-3" d="M378.32,300.32s-83-59.79-3.19-78.47c62.2-14.64,161.43-31.23,201.71-37.8a293.27,293.27,0,0,0,29.87-6.51C651,165.57,810.5,132,914,236.1c117.58,118,4.3,323.91-139.11,318.38-7.1,0-14.25-.65-21.35-.52-23.42.39-95.45-6.51-196.24-92.72Z" transform="translate(-36.12 -68.35)"/>
    <path class="cls-4" d="M618.55,506.33a157.93,157.93,0,0,0,33,18.09C694,541.6,807.7,540.43,865,478c73.33-79.71,89.53-187.21,20.56-259.24C821.37,151.64,719.73,159.45,706.33,161c-1,0-22.32,1.63-23.23,2.08l-35.72,5.08c-3.91,2.08,2.6,3.58,6.5,4.94s6.51,5.53,10.8,5.4c52.77-.91,111.14,17.77,143.15,45.55,32.93,28.57,45.1,42,58,69.95,8,17.24,14.18,37-.65,89.54,0,1-24.6,46.59-25.32,47.37-12.55,13-50.88,67.08-220.06,74.24Z" transform="translate(-36.12 -68.35)"/>
    <path class="cls-5" d="M454.9,276.57C471.5,216.84,565.52,196,662.73,223s160.72,91.61,144.39,151.22-99.75,95.06-197,68.06S438.31,336.18,454.9,276.57Z" transform="translate(-36.12 -68.35)"/>
    <path class="cls-6" d="M632.8,460.33a210,210,0,0,0,86.54-2.15c.72,0,24.27-9.24,30.71-19.52a259.06,259.06,0,0,0,38.59-68.78A108,108,0,0,0,747.26,247.1c-25.38-17.64-58.57-39.56-65.07-38.39-10.74,1.88-270,39-290.14,43a4.75,4.75,0,0,0-2.22,1.1l-10.47,9.05a4.88,4.88,0,0,0-.68,6.87,5.46,5.46,0,0,0,.68.68l251.29,190A4.63,4.63,0,0,0,632.8,460.33Z" transform="translate(-36.12 -68.35)"/>
    <path class="cls-7" d="M360.1,268.05s-23.56-22.64-.39-26.81c19-3.38,160.13-32.53,210.43-42.75,13.4-2.73,27-2.47,40.6-4,31.63-3.38,76.26-7.29,79.52,8.59,2.6,13-72.56,37.61-143.74,46.85-56.81,7.35-66.37,42.42-63.12,52.06,6.51,19.52,21.8,30.12,38.13,42.42,18.35,13.92,112.12,99.42,117.58,108.92,4.36,7.62-13,34-41.64,18.16S360.1,268.05,360.1,268.05Z" transform="translate(-36.12 -68.35)"/>
    <path class="cls-2" d="M564,633.93s-16.07-71,35.34-43.4c41.12,22.19,104.1,61.55,127.46,76.32,5.47,3.45,11.07,6.51,16.79,9.44,28.89,14.25,130.46,71.58,136.65,176.47,7.22,119.92-154.22,176.27-227,101.7a84.9,84.9,0,0,0-7.16-6.51c-11.32-9.17-48.67-46.2-62.4-143.15Z" transform="translate(-36.12 -68.35)"/>
    <path class="cls-3" d="M569.68,642.84s-15.74-69.75,34.69-42.62C643.73,621.37,703.46,658.79,728,674a212.82,212.82,0,0,0,18.61,10.54c28.76,14.25,127.79,70.66,133.91,173,7,116.27-147.77,171.71-220.39,102.35-3.64-3.45-7.16-6.9-10.93-10.15C636.7,939,602.28,902,589.27,810.2Z" transform="translate(-36.12 -68.35)"/>
    <path class="cls-4" d="M600.07,862.19A108.77,108.77,0,0,0,609,887c14.25,28.63,74.37,80.62,133.39,74.57,75.35-7.81,133.58-56.61,130.85-126.36-2.54-65.07-59.47-107.82-67.28-113.42-.65-.39-12.5-9.5-13-9.63l-21.08-13.92c-3-.72,0,3.12,1.11,5.59s1,6,3.12,7.88c28,23.88,50,60.77,53.88,90s4.16,42.88-2,63.51c-3.84,13-9.76,26-41.84,46.65-.65.39-34.49,13-35.21,13-13,1.17-57.78,11.58-149.65-63Z" transform="translate(-36.12 -68.35)"/>
    <path class="cls-5" d="M620.83,665.81c36.37-23.62,95.26,8.92,133.71,68.13s41.91,122.72,5.53,146.34-96.36,3.64-134.75-55.63S584.45,689.43,620.83,665.81Z" transform="translate(-36.12 -68.35)"/>
    <path class="cls-6" d="M628.83,844.56a146.8,146.8,0,0,0,46.46,39c.46,0,17,6.51,25.05,4.1a181.57,181.57,0,0,0,52.06-18.16A75.67,75.67,0,0,0,787.6,786c-5.14-21-12.36-47.83-16.4-50.37-6.51-4-159.68-104.5-172-111.85a3.93,3.93,0,0,0-1.7-.46H587.9a3.32,3.32,0,0,0-3.46,3.18,3.58,3.58,0,0,0,.08.86l43.73,215.77A2.9,2.9,0,0,0,628.83,844.56Z" transform="translate(-36.12 -68.35)"/>
    <path class="cls-7" d="M575,617.47s-1.82-22.78,12.23-14.19c11.52,7,98.91,57.2,130.14,75A135.08,135.08,0,0,1,740.49,695c15.62,14.05,40.21,38.45,34.55,48.28-8.2,14.19-97.21-42.1-112.37-39.82-14,2-28.37,23-28.37,39s-6.18,87.39-.85,92.85-20.69,20.24-28.3-1.36S575,617.47,575,617.47Z" transform="translate(-36.12 -68.35)"/>
  </g>
</svg>
