<svg id="Layer_1" data-name="Layer 1" xmlns="http://www.w3.org/2000/svg" width="937.12" height="911.2" viewBox="0 0 937.12 911.2">
  <defs>
    <style>
      .cls-1 {
        fill: #945e97;
        stroke: #592e55;
      }

      .cls-1, .cls-10 {
        stroke-miterlimit: 10;
        stroke-width: 2.14px;
      }

      .cls-2 {
        opacity: 0.63;
      }

      .cls-3 {
        fill: #482545;
        opacity: 0.37;
      }

      .cls-3, .cls-7, .cls-9 {
        isolation: isolate;
      }

      .cls-4 {
        opacity: 0.6;
      }

      .cls-5 {
        fill: #935992;
      }

      .cls-6 {
        fill: #b380af;
      }

      .cls-7 {
        fill: #9a8999;
        opacity: 0.92;
      }

      .cls-8 {
        fill: #98c34d;
      }

      .cls-9 {
        fill: #bdd864;
        opacity: 0.27;
      }

      .cls-10 {
        fill: none;
        stroke: #6b8049;
      }
    </style>
  </defs>
  <title>eggp</title>
  <g>
    <g id="Fill">
      <path class="cls-1" d="M333.84,193.62l69.77,40.18s170.32,219,327.94,278S991.69,690.55,1003.34,752,1038.23,1002.6,850,1004.72,454.38,822.81,454.38,822.81,206.48,609.06,147.83,422.33L98.58,245l81-56.14Z" transform="translate(-74.91 -94.6)"/>
    </g>
    <g id="Shading" class="cls-2">
      <path class="cls-3" d="M171.33,265.84S305.44,510.1,379.52,560.15c70.16,47.39,196.13,204.54,435.83,321.44a178.08,178.08,0,0,0,117.7,15c38.39-8.87,76.58-31.51,75.59-86.59,0,0,23.43,164.63-112.53,184.62S519.79,922.57,333.44,706.37,106.06,321.05,119.7,268.42,171.33,265.84,171.33,265.84Z" transform="translate(-74.91 -94.6)"/>
    </g>
    <g id="Highlights" class="cls-4">
      <path class="cls-5" d="M232.83,231.55s148.94,322.51,368,446.62A884.26,884.26,0,0,1,741.87,779.52c64.48,55.6,160.59,118.36,234.14,79.83,63.81-33.49,27.14-100.55-22.11-156.62a546.17,546.17,0,0,0-153-120c-110.35-59-364.07-208.71-498.58-403.19Z" transform="translate(-74.91 -94.6)"/>
      <path class="cls-6" d="M214.89,245.32S359.33,558,571.88,678.17a856.92,856.92,0,0,1,136.76,98.24c62.56,54,155.69,114.78,227,77.38,61.89-32.5,26.48-97.44-21.45-151.79A526.84,526.84,0,0,0,765.83,585.7c-107-57.2-352.69-202.36-483.22-390.56Z" transform="translate(-74.91 -94.6)"/>
      <path class="cls-7" d="M278.63,504s326.94,388.7,546.19,442.52C824.82,946.53,441.94,914.62,278.63,504Z" transform="translate(-74.91 -94.6)"/>
    </g>
    <g id="Top">
      <path class="cls-8" d="M120.62,157.81S63.83,210,79.72,260s12.11,63.68,11,73.94,13.84,71.3,66.2,87.18c0,0-28.2-65.6-26-112.53,0,0-6.62-37.46-10.19-40.84s39.71,30.65,77.18,14.76,73.68,77.38,73.68,77.38,19.26,42,27.27-2.25,18.14-72.81,3.38-129.48,23.83-12.44,23.83-12.44,97.64,35.15,120.34-6.62c0,0-37.47,26.08-109-39.72,0,0-70.43-87.38-164.63-43.09,0,0-5.29,5.69-15.22-13.57s-28.07-21.85-41.57-13.24a19.19,19.19,0,0,0-7.28,22.64S131.41,152.64,120.62,157.81Z" transform="translate(-74.91 -94.6)"/>
      <path class="cls-9" d="M187.81,118.49s-31.17,59,12.05,129.41a1195,1195,0,0,0,84.6,120.15s44.42-28.6,7.88-161.79c0,0,2-13.83,22.7-2s77.91,38.46,123.32,9.86c0,0-65.07.4-97.63-39.12S247.32,100.88,187.81,118.49Z" transform="translate(-74.91 -94.6)"/>
      <path class="cls-10" d="M119.7,158.27S62.9,210.5,78.79,260.48s12.31,63.68,11,73.94,13.83,71.22,66.19,87.11c0,0-28.2-65.6-25.95-112.53,0,0-6.61-37.47-10.19-40.84S159.55,298.8,197,282.92s73.68,77.51,73.68,77.51,19.26,42,27.21-2.25,18.2-72.81,3.44-129.41,23.83-12.51,23.83-12.51,97.64,35.21,120.34-6.62c0,0-37.46,26.15-108.95-39.72,0,0-70.44-87.44-164.63-43.16,0,0-5.3,5.69-15.23-13.24s-28.07-21.84-41.57-13.24a19.07,19.07,0,0,0-7.28,23.44S130.82,153.17,119.7,158.27Z" transform="translate(-74.91 -94.6)"/>
    </g>
  </g>
</svg>
