<svg id="Layer_1" data-name="Layer 1" xmlns="http://www.w3.org/2000/svg" width="891.48" height="928.09" viewBox="0 0 891.48 928.09">
  <defs>
    <style>
      .cls-1, .cls-12 {
        fill: #010101;
      }

      .cls-11, .cls-2 {
        fill: #fff;
      }

      .cls-3 {
        fill: #e9a2c7;
        opacity: 0.37;
      }

      .cls-10, .cls-11, .cls-12, .cls-3, .cls-7 {
        isolation: isolate;
      }

      .cls-4 {
        fill: #c02328;
        stroke: #9c1d22;
        stroke-miterlimit: 10;
        stroke-width: 2.43px;
      }

      .cls-5 {
        fill: none;
      }

      .cls-6 {
        fill: #f2cfe3;
      }

      .cls-7 {
        fill: #434343;
        opacity: 0.32;
      }

      .cls-8 {
        opacity: 0.66;
      }

      .cls-9 {
        fill: #e9a6b1;
      }

      .cls-10 {
        fill: #cb79a8;
        opacity: 0.67;
      }

      .cls-11 {
        opacity: 0.7;
      }

      .cls-12 {
        font-size: 113.01px;
        font-family: OpenSans, Open Sans;
      }
    </style>
  </defs>
  <title>mouth</title>
  <g>
    <g id="Layer_1-2" data-name="Layer 1">
      <ellipse class="cls-1" cx="445.74" cy="467.59" rx="362.56" ry="329.32"/>
      <path class="cls-2" d="M387.53,320.34l403.32,66.45s-55.47-84.85-129.47-123.13S448.56,236,448.56,236l-35.85,32-26.49,49a2.07,2.07,0,0,0,1.31,3.34Z" transform="translate(-141.39 -64.72)"/>
      <path class="cls-3" d="M724.35,436.07a231.94,231.94,0,0,0-39.55,6.15c-44.57,9-130.28,42.13-224.4,136.15Z" transform="translate(-141.39 -64.72)"/>
      <path class="cls-4" d="M1017.78,527.56a38.61,38.61,0,0,1-14.06-2.53,39.27,39.27,0,0,1-8-1.81c-3.89,1.36-18.08-5.78-22.6-7.5-3.57-1.36-4.52-2.26-8.55-3.71-56.5,7.1-88.51,43.35-148.45,92-122.51,99.45-218.34,182.4-285.38,193.93S284.87,536.56,260.14,458.35c0,0-11.8,19.49-48.64,2.72-2.21,2.57-19.62-11.3-18.4-8.5,9.63,70.43,55.24,415.89,239.18,487,0,0,235.79,67,367.52-101.71S947.71,629.91,947.71,629.91s35.67-71.34,80.69-94.93c-4.52-.59-4.2-5.56-7.59-7.46A21.81,21.81,0,0,0,1017.78,527.56Z" transform="translate(-141.39 -64.72)"/>
      <path class="cls-4" d="M1024.88,524.63C959.1,452.3,906.35,343,889.26,272.56a204,204,0,0,0-68.71-109.35,370.78,370.78,0,0,0-94.48-56.28C613.56,61.09,545.25,139.3,545.25,139.3,475.91-11,351.09,116.15,351.09,116.15s-60.25,60.12-85.7,166.45-71.07,168.66-71.07,168.66,37.61,33.54,65.05,11.61c26.09-20.65,102.94-138.68,102.94-138.68s41.77-50.86,94.93-78.62,197.23,22.88,256.58,69.08A518,518,0,0,1,814.36,421.87c113.6,130.47,193.43,108.5,215.63,109A56.41,56.41,0,0,1,1024.88,524.63Z" transform="translate(-141.39 -64.72)"/>
      <path class="cls-5" d="M408.73,161.81s64.69,159.48,224.17,34.67" transform="translate(-141.39 -64.72)"/>
      <path class="cls-6" d="M633.76,437.15a.5.5,0,0,0,.25-.66.53.53,0,0,0-.25-.24c-107.31-50.59-233.44-39-327.15,30.56-100.76,74.77-147.37,204.42-119,329a125.5,125.5,0,0,1,3.75,16c1.72,30.92,11.58,172.1,92.13,179,90.14,7.64,158.63-6.42,231.14-77.84,109.26-107.73,199.17-214.55,310.1-315.31,79.16-71.87,100.81-74.18,110.12-78.38a24.61,24.61,0,0,1,6.51-2.54c4.84-1.4-4.15-6.1-5.65-6.82C920,502,900.56,494.52,863.68,476.07c-27.62-13.83-34.54-22.6-56.42-30.64-18.08-6.6-60.71-18.58-128.52-1.72-133.13,33.09-213.59,140.13-219.56,134-4.52-4.52,38.38-67.4,110.93-110.93A338,338,0,0,1,633.76,437.15Z" transform="translate(-141.39 -64.72)"/>
      <path class="cls-7" d="M941.38,516.8s-32.14-9.58-206,166.9L547.65,880.21A432.13,432.13,0,0,1,502,925.87c-28.12,23.82-62.84,45.83-82.5,50.45a345.81,345.81,0,0,0,130.19-74.55h0s217-237,268.24-279.23C818,622.54,921.54,528.47,941.38,516.8Z" transform="translate(-141.39 -64.72)"/>
    </g>
    <g id="Layer_2" data-name="Layer 2" class="cls-8">
      <path class="cls-9" d="M622,896.21s120-91.13,142.62-124.54,31.65-11.93,31.65-11.93-29.61,78.07-73.91,106.64S598.5,929.57,622,896.21Z" transform="translate(-141.39 -64.72)"/>
      <path class="cls-9" d="M620.74,172S571,201.54,593.62,201.05s60.76-9.54,96.38-2.49a208.16,208.16,0,0,1,60.71,22.06s33.54,18.08,20.43-8.05-58.77-44.12-87.43-48.14S620.74,172,620.74,172Z" transform="translate(-141.39 -64.72)"/>
      <path class="cls-9" d="M392.32,146.85s-24.68,27.12,0,25,47.29-10.17,81.82-3.39,36.71,0,21.88-16.23S439.61,118.46,392.32,146.85Z" transform="translate(-141.39 -64.72)"/>
      <ellipse class="cls-9" cx="822.62" cy="328.3" rx="20.93" ry="43.53" transform="translate(-196.49 382.31) rotate(-29.46)"/>
      <path class="cls-3" d="M415.78,844.36c94.93-18.08,177-151.48,211.29-151.48l29.84.41c10.85,0,56.6,12.2,48.82,21.56C694.34,728.41,626.8,798,612,816.7c-29.52,37.29-87.34,101.39-159.94,141-40.18,21.93-87.88,35.49-130.82,34.81,0,0-115.82,15.23-129.6-167.76-1.81-24-9.9-46.33-6.38-57.5C207.57,697,334,860,415.78,844.36Z" transform="translate(-141.39 -64.72)"/>
      <path class="cls-10" d="M355.25,433.81s147.55-65.37,278.51,3.34a493.92,493.92,0,0,0-86.88,45.66c-36.17,24.05-70.25,60.85-80.87,81.37-3.67,7.14-5.88,13.56-9.32,14.15-5.92,1.4-33.13-101.85-63.28-113.56-34-13.24-62.43-15-76.54-3.48Z" transform="translate(-141.39 -64.72)"/>
      <path class="cls-11" d="M415.47,879.08c79.11-19.48,140.63-116.45,169.65-119l25.27-2c9-.67,48.64,4.07,42.59,11-8.77,10.17-61.71,62.56-73.1,76.4-22.6,27.62-67.81,75.58-126.58,108A279.64,279.64,0,0,1,344.81,987S247.71,1006.11,225,882.61c-3-16.23-11.21-30.83-9-38.66C230.4,794.46,347.21,895.9,415.47,879.08Z" transform="translate(-141.39 -64.72)"/>
      <path class="cls-7" d="M405.07,282s159.26-105.1,381.8,105.1a376.84,376.84,0,0,0-98.54-90.41,402.25,402.25,0,0,0-126.58-50.49c-26.08-5.25-52.66-10.81-78.79-7.6C457.69,241.73,430.66,258.05,405.07,282Z" transform="translate(-141.39 -64.72)"/>
    </g>
  </g>
  <text class="cls-12" transform="translate(27.96 752.52) rotate(-16.78)">#OPENUP</text>
</svg>
