<svg id="Layer_1" data-name="Layer 1" xmlns="http://www.w3.org/2000/svg" width="977.83" height="995.52" viewBox="0 0 977.83 995.52">
  <defs>
    <style>
      .cls-1 {
        fill: #7f5846;
      }

      .cls-2 {
        fill: #668339;
      }

      .cls-3 {
        fill: #88c040;
        opacity: 0.23;
      }

      .cls-10, .cls-3, .cls-4, .cls-6, .cls-8, .cls-9 {
        isolation: isolate;
      }

      .cls-4 {
        fill: #2c3a19;
        opacity: 0.25;
      }

      .cls-5 {
        fill: #e77a41;
      }

      .cls-6, .cls-8, .cls-9 {
        fill: #fff;
      }

      .cls-6 {
        opacity: 0.43;
      }

      .cls-7 {
        fill: #d66331;
      }

      .cls-8 {
        opacity: 0.2;
      }

      .cls-9 {
        opacity: 0.1;
      }

      .cls-10 {
        fill: #d64027;
        opacity: 0.15;
      }
    </style>
  </defs>
  <title>peach</title>
  <g>
    <g id="Top">
      <path class="cls-1" d="M510,181S488.3,85,495.52,55.64s42.13-18.14,43.36-15,40.53,23.49,4.84,44.87a13.1,13.1,0,0,0-11.2,11.71s0,67.2.51,73.12,11.77,8,11.77,8l4.77,8-11.92,11.71S511.57,188.52,510,181Z" transform="translate(-30.61 -35.93)"/>
      <path class="cls-2" d="M163.65,214.82s-51.3-19.58-97.76-79c0,0,63.51-66,202.89-58.67s198,44.8,229.78,91.26C498.56,168.36,284.25,129.27,163.65,214.82Z" transform="translate(-30.61 -35.93)"/>
      <path class="cls-3" d="M72.54,151.24a754.15,754.15,0,0,0,227.89,10.11L351,155l-4.19-11.2s-70.95,6-140.9,4.92c-57.3-.87-114.81-8.17-124-12.58L66,143Z" transform="translate(-30.61 -35.93)"/>
      <path class="cls-4" d="M324.64,88.16s28.9,70.81,26.08,78.61c0,0,31.94-1.66,66,0,7.23,0,15.25,1.73,23,1.73s15.39,1.59,22.76,2.1c9,.58,17.41,2.6,24.21,3.18A53,53,0,0,1,499,176.16a155.17,155.17,0,0,0-28.9-32.37,256.71,256.71,0,0,0-88.22-49.28S326.66,76.38,324.64,88.16Z" transform="translate(-30.61 -35.93)"/>
      <path class="cls-4" d="M82,155.5s154.05,19.72,218.43,5.85c0,0-125.29,46.68-139.38,67.85h0S93,189.46,82,155.5Z" transform="translate(-30.61 -35.93)"/>
      <path class="cls-2" d="M545.24,178.33s33-65.54,159-65.54S962.52,167.06,956,260.41c0,0-38,7.66-57.8-16.25h0s-25-59.69-155.21-81.44S545.24,178.33,545.24,178.33Z" transform="translate(-30.61 -35.93)"/>
      <path class="cls-4" d="M659.69,116.05s-90,13.87-114.45,62.28c0,0,88-21.68,125.51-14.45l60.33,1.66S664,143.86,666.55,137.29c0,0,2.53-17.27,11-20.59Z" transform="translate(-30.61 -35.93)"/>
      <path class="cls-3" d="M838,194.52l116.19,43.35s10,19.29-7.23,22.54A548.4,548.4,0,0,1,838,194.52Z" transform="translate(-30.61 -35.93)"/>
    </g>
    <g id="Fill">
      <path class="cls-5" d="M518.14,190.33S122,88.52,44.94,399.43c0,0-33.31,150.51,4.4,254.35S277.53,911.3,340.61,949a1026.4,1026.4,0,0,0,118.64,60.7s44.51,32.37,110.55,2.67S978.41,800.6,1002.69,575.52,900.16,234.4,835.49,208.75s-216.77-67.49-298.56-10.19Z" transform="translate(-30.61 -35.93)"/>
    </g>
    <g id="Highlights_and_Shadows" data-name="Highlights and Shadows">
      <path class="cls-6" d="M538.16,197.77c1.44,10.62,273.92,191.62,30.56,784.05,0,0,172-326.24,114.53-547.49S579.05,220.31,538.16,197.77Z" transform="translate(-30.61 -35.93)"/>
      <path class="cls-7" d="M538.3,197.7c-3.18,0,291.77,195.09,31.29,782.67,0,0,180.64-320.67,123.41-541.92S579.12,220.24,538.3,197.7Z" transform="translate(-30.61 -35.93)"/>
      <path class="cls-8" d="M138.72,254.92S39.88,516.71,103,634.41s82.3,130.64,241.62,256l142.49,89.17s59,28,43.35,44.73c0,0-131.65,33.09-427.82-280.29,0,0-54.77-68.42-65-135.91S19.93,393,79.91,309.26c0,0,38.08-57.44,81.14-79.92Z" transform="translate(-30.61 -35.93)"/>
      <path class="cls-9" d="M848.71,219.37a86.72,86.72,0,0,1,19.08,27.1c25.5,57,107.08,254.41,62.79,358.89-52,122.84-70.16,137.29-217.49,276.89l-127.39,97a93.57,93.57,0,0,1-11.92,7.8c-15,8.17-53.69,31.22-39.89,43.35,0,0,144.51,35.55,410.63-303.47,0,0,59.18-101.16,63.52-168.86a490.44,490.44,0,0,0-27.75-183.75,339.53,339.53,0,0,0-60.62-102s-37.29-43.79-82.23-62.22Z" transform="translate(-30.61 -35.93)"/>
      <path class="cls-9" d="M257.73,189.6s-42.27,37-5.28,100.51,198.28,245.67,164,370.1S573.78,987,573.78,987,915.55,718.88,899.65,494.16s-37.28-236-45.23-248.27c-22.54-35.12-198-119.29-316.7-47.83C537.65,198.06,347.62,136.71,257.73,189.6Z" transform="translate(-30.61 -35.93)"/>
      <path class="cls-10" d="M212.5,354.56c40.46,39.89,95.09,107,113.58,174,0,0,154.2,374.28,246.69,459.83l-35.12,29S106.14,771.7,83.16,574.29c0,0-1.74-92.84,65-211a40.9,40.9,0,0,1,64.31-8.75Z" transform="translate(-30.61 -35.93)"/>
    </g>
  </g>
</svg>
